#!OML:ASF C:\Vicon Data\Big\jianyuan-13\jianyuan\Session 1\Capture.male.ASF
:FULLY-SPECIFIED
:DEGREES
28
root -7.946574 17.335443 -22.376820 9.709794 6.790425 0.982842
lowerback -8.391466 -1.098833 -1.283176 
upperback -0.162713 -1.398095 0.508307 
thorax 4.581987 -0.740306 1.077111 
lowerneck -5.808326 -2.440132 3.156085 
upperneck 2.346534 -3.375318 -3.608220 
head 1.614904 -1.744763 -1.788771 
rclavicle 0.000000 0.000000 
rhumerus -42.683162 -24.368530 -75.056898 
rradius 26.207113 
rwrist 33.598759 
rhand -18.345040 -16.029556 
rfingers 0.000000 
rthumb 7.937323 -45.860590 
lclavicle 0.000000 0.000000 
lhumerus -21.617858 18.790313 88.209575 
lradius 31.727287 
lwrist -41.897529 
lhand -28.290737 0.455115 
lfingers 0.000000 
lthumb -1.666677 30.428322 
rfemur -25.799882 6.643326 19.776774 
rtibia 25.421861 
rfoot -10.968360 -1.874279 
rtoes -18.975880 
lfemur -16.656722 -7.611946 -19.623193 
ltibia 39.483388 
lfoot -11.352263 2.812431 
ltoes -32.127853 
29
root -7.953312 17.339712 -22.329535 9.692169 6.843278 0.919507
lowerback -8.403591 -1.028084 -1.221518 
upperback -0.177141 -1.309837 0.497339 
thorax 4.569355 -0.695280 1.041831 
lowerneck -5.819554 -2.506930 3.151116 
upperneck 2.420844 -3.463459 -3.553767 
head 1.638357 -1.786962 -1.774302 
rclavicle 0.000000 0.000000 
rhumerus -42.699425 -24.310311 -75.142953 
rradius 26.305763 
rwrist 33.630586 
rhand -18.380052 -15.978339 
rfingers 0.000000 
rthumb 7.903533 -45.810621 
lclavicle 0.000000 0.000000 
lhumerus -21.851314 18.687008 88.115252 
lradius 31.623328 
lwrist -42.042127 
lhand -28.190925 0.441720 
lfingers 0.000000 
lthumb -1.570294 30.415643 
rfemur -25.562432 6.563183 19.927859 
rtibia 25.348427 
rfoot -11.043074 -1.806330 
rtoes -19.398104 
lfemur -17.087909 -7.586541 -19.504688 
ltibia 40.294089 
lfoot -11.395224 2.728083 
ltoes -32.028927 
30
root -7.960566 17.344666 -22.282033 9.664700 6.846688 0.899301
lowerback -8.385208 -0.968400 -1.230144 
upperback -0.201387 -1.230609 0.498750 
thorax 4.531709 -0.656279 1.058437 
lowerneck -5.818976 -2.564989 3.096601 
upperneck 2.511773 -3.535665 -3.510111 
head 1.666236 -1.822004 -1.754248 
rclavicle 0.000000 0.000000 
rhumerus -42.710965 -24.127985 -75.261511 
rradius 26.448207 
rwrist 33.578178 
rhand -18.341327 -15.992305 
rfingers 0.000000 
rthumb 7.940901 -45.823138 
lclavicle 0.000000 0.000000 
lhumerus -22.108682 18.694852 88.021194 
lradius 31.499025 
lwrist -42.238012 
lhand -28.085147 0.434153 
lfingers 0.000000 
lthumb -1.468176 30.408807 
rfemur -25.308534 6.468964 20.045817 
rtibia 25.270437 
rfoot -11.112746 -1.694219 
rtoes -19.811468 
lfemur -17.475445 -7.520124 -19.431242 
ltibia 41.045615 
lfoot -11.460637 2.563327 
ltoes -31.490406 
31
root -7.967783 17.347598 -22.233849 9.699221 6.856272 0.865270
lowerback -8.481761 -0.927708 -1.194007 
upperback -0.216942 -1.179427 0.483133 
thorax 4.567148 -0.630635 1.026810 
lowerneck -5.813728 -2.579415 3.177618 
upperneck 2.559276 -3.558565 -3.519988 
head 1.678633 -1.832300 -1.773161 
rclavicle 0.000000 0.000000 
rhumerus -42.612835 -23.854362 -75.538304 
rradius 26.605469 
rwrist 33.011749 
rhand -18.282196 -15.955446 
rfingers 0.000000 
rthumb 7.998011 -45.784139 
lclavicle 0.000000 0.000000 
lhumerus -22.330703 18.713717 87.876773 
lradius 31.394157 
lwrist -42.425791 
lhand -27.958798 0.536830 
lfingers 0.000000 
lthumb -1.346147 30.512327 
rfemur -25.129950 6.440119 20.149416 
rtibia 25.191330 
rfoot -11.216584 -1.671914 
rtoes -20.083110 
lfemur -17.938591 -7.343545 -19.341752 
ltibia 41.725076 
lfoot -11.448906 2.391821 
ltoes -31.831325 
32
root -7.973772 17.350726 -22.187177 9.743975 6.910012 0.821143
lowerback -8.549691 -0.889724 -1.161415 
upperback -0.249154 -1.134172 0.504665 
thorax 4.570228 -0.608371 1.035679 
lowerneck -5.817930 -2.621723 3.078525 
upperneck 2.614556 -3.609017 -3.437949 
head 1.697856 -1.856231 -1.731717 
rclavicle 0.000000 0.000000 
rhumerus -42.571530 -23.650703 -75.685703 
rradius 26.809278 
rwrist 32.627155 
rhand -18.256451 -15.957146 
rfingers 0.000000 
rthumb 8.022824 -45.784865 
lclavicle 0.000000 0.000000 
lhumerus -22.603547 18.754187 87.774821 
lradius 31.323651 
lwrist -42.751799 
lhand -27.805353 0.576902 
lfingers 0.000000 
lthumb -1.197947 30.553280 
rfemur -24.964515 6.367238 20.261519 
rtibia 25.108406 
rfoot -11.314478 -1.637065 
rtoes -20.343054 
lfemur -18.410780 -7.316133 -19.260064 
ltibia 42.321733 
lfoot -11.533226 2.312934 
ltoes -31.608773 
33
root -7.980287 17.353974 -22.141609 9.781831 6.955247 0.812540
lowerback -8.597820 -0.843236 -1.165456 
upperback -0.279705 -1.072709 0.500117 
thorax 4.563652 -0.578439 1.040421 
lowerneck -5.843461 -2.666993 3.078929 
upperneck 2.694749 -3.668795 -3.411546 
head 1.726583 -1.885108 -1.727114 
rclavicle 0.000000 0.000000 
rhumerus -42.551638 -23.514582 -75.803496 
rradius 26.963305 
rwrist 32.523266 
rhand -18.319308 -15.943475 
rfingers 0.000000 
rthumb 7.962158 -45.773507 
lclavicle 0.000000 0.000000 
lhumerus -22.867528 18.681758 87.656128 
lradius 31.251577 
lwrist -42.951887 
lhand -27.596946 0.530268 
lfingers 0.000000 
lthumb -0.996636 30.507664 
rfemur -24.788719 6.306539 20.335546 
rtibia 25.028830 
rfoot -11.421653 -1.612810 
rtoes -20.502282 
lfemur -18.854326 -7.262382 -19.222712 
ltibia 42.853005 
lfoot -11.544167 2.233772 
ltoes -31.393040 
